<?xml version="1.0" encoding="utf-8"?>
<!-- Generator: Adobe Illustrator 26.0.1, SVG Export Plug-In . SVG Version: 6.00 Build 0)  -->
<svg version="1.1" id="Ebene_1" xmlns="http://www.w3.org/2000/svg" xmlns:xlink="http://www.w3.org/1999/xlink" x="0px" y="0px"
	 viewBox="0 0 355 101" style="enable-background:new 0 0 355 101;" xml:space="preserve">
<style type="text/css">
	.st0{fill:#FFFFFF;}
	.st1{fill:#EEEDF4;}
	.st2{fill:#0000FF;}
	.st3{fill:#FF0066;}
	.st4{fill:#FF0076;fill-opacity:0;}
</style>
<g id="SvgjsG1042" transform="matrix(1.1348677090169825,0,0,1.1348677090169825,-6.743383827407845,-6.221344637968266)">
	<g>
		<path class="st0" d="M36.8,32.7l0.3-0.5c0.9-1.3,1.4-2,2.1-1.9c0.5,0,1.3,0.5,2,0.9c1.2,0.8,2.7,1.7,3.7,0.5
			c0.4-0.5,0.7-1,1.1-1.5c0.9-1.2,1.7-2.4,2.4-2.6c0.9-0.3,2.9,0.6,3.9,1c0.4,0.1,0.6,0.2,0.8,0.3l0.2-0.9c-0.1,0-0.4-0.1-0.7-0.3
			c-1.6-0.7-3.5-1.3-4.5-1c-1,0.3-1.8,1.5-2.9,2.9c-0.3,0.5-0.7,1-1.1,1.5c-0.4,0.5-1.2,0.1-2.4-0.7c-0.8-0.5-1.6-1-2.4-1.1
			c-1.3-0.1-2,1-2.9,2.3L36,32.2c-0.4,0.6-1.2,1.8-1.2,1.8l0.8,0.5C35.6,34.5,36.3,33.3,36.8,32.7z"/>
		<path class="st0" d="M45.3,24.9l0.3-0.3c0.7-0.9,1.2-1.4,1.7-1.4c0.4,0,1,0.3,1.5,0.6c1,0.5,2,1.1,2.8,0.2
			c0.3-0.4,0.6-0.7,0.9-1.1c0.7-0.9,1.4-1.7,2-1.9c0.7-0.2,2.3,0.3,3.1,0.6c0.3,0.1,0.5,0.2,0.6,0.2l0.1-0.7c-0.1,0-0.3-0.1-0.5-0.2
			c-1.2-0.4-2.6-0.8-3.5-0.6c-0.8,0.2-1.4,1-2.3,2.1c-0.3,0.3-0.6,0.7-0.9,1c-0.4,0.4-1,0.1-1.9-0.4c-0.6-0.3-1.2-0.7-1.8-0.7
			c-0.9,0-1.6,0.7-2.3,1.7l-0.3,0.3c-0.4,0.4-1,1.2-1,1.2l0.5,0.4C44.3,26.2,45,25.4,45.3,24.9z"/>
		<path class="st0" d="M55.2,30.5c-1.3-0.3-2.3,0.7-3.6,2l-0.4,0.4c-0.6,0.6-1.6,1.7-1.6,1.7l0.7,0.6c0,0,1.1-1.1,1.6-1.7l0.4-0.4
			c1.2-1.3,1.9-1.9,2.7-1.7c0.6,0.1,1.3,0.7,2,1.3c1.2,1,2.6,2.2,3.9,1c0.5-0.5,1-0.9,1.5-1.4c1.2-1.2,2.3-2.2,3.1-2.4
			c1-0.1,3.2,1.1,4.2,1.7c0.4,0.2,0.6,0.4,0.8,0.4l0.4-0.8c-0.1-0.1-0.4-0.2-0.7-0.4c-1.7-0.9-3.6-1.9-4.8-1.8
			c-1.1,0.2-2.2,1.2-3.6,2.6c-0.5,0.5-0.9,0.9-1.4,1.4c-0.6,0.5-1.4,0-2.7-1.1C56.9,31.4,56,30.7,55.2,30.5z"/>
		<path class="st1" d="M66.7,5.5c-24.3,0-44.1,20-44.1,44.5s19.8,44.5,44.1,44.5c24.3,0,44.1-20,44.1-44.5S91,5.5,66.7,5.5z
			 M66.7,90.8c-22.3,0-40.4-18.3-40.4-40.8c0-22.5,18.1-40.8,40.4-40.8c22.3,0,40.4,18.3,40.4,40.8C107.1,72.5,89,90.8,66.7,90.8z"
			/>
		<path class="st2" d="M79.5,60.9c-2.8-0.5-5.5,0.8-8.2,2c-2.1,0.9-4.1,1.8-5.8,1.7c-1.5-0.1-3.4-0.6-5.4-1.1
			c-3.6-0.9-7.4-1.8-9.9-1.1c-1.9,0.5-3.8,1.4-5.6,2.2c-4.6,2.2-8.5,4.1-13.4,0.1l-1.1,1.4c5.8,4.6,10.7,2.3,15.4,0.1
			c1.7-0.8,3.5-1.6,5.2-2.1c2.1-0.6,5.7,0.3,9,1.1c2.1,0.5,4,1,5.6,1.1c2.1,0.2,4.3-0.8,6.7-1.8c2.4-1.1,4.9-2.2,7.1-1.8
			c4.2,0.7,7.9,1.9,20.6,7.4l0.7-1.7C87.7,62.9,83.8,61.7,79.5,60.9z"/>
		<path class="st2" d="M75.5,71.9c-3.1-0.1-7.4,1.5-11.5,3.3c-1.6,0.7-3.5-0.7-5.4-2.2c-1.4-1.1-2.9-2.2-4.5-2.7
			c-2.5-0.7-4.7,0.3-7.6,1.8c-0.3,0.2-0.7,0.3-1,0.5c-1.4,0.6-3.9,1.9-3.9,1.9l0.8,1.7c0,0,2.5-1.2,3.8-1.8c0.4-0.2,0.7-0.3,1-0.5
			c2.7-1.3,4.5-2.2,6.3-1.7c1.2,0.3,2.6,1.4,3.8,2.4c1.7,1.3,3.6,2.8,5.6,2.8c0.5,0,1.1-0.1,1.6-0.3c3.8-1.6,8-3.2,10.7-3.1
			c2.6,0.1,7.2,2.3,8.9,3.1c0.3,0.1,0.5,0.2,0.6,0.3l0.8-1.7c-0.1-0.1-0.4-0.2-0.6-0.3C83.1,74.3,78.4,72.1,75.5,71.9z"/>
		<path class="st3" d="M60.5,55.5c1.7-1,4.6-1.6,7.4,0.4c2.7,1.9,2.8,4.4,2.8,4.5l1.4,0c0-0.1-0.1-3.3-3.4-5.6
			c-3.3-2.3-6.9-1.7-8.9-0.4c-3.5,2.2-4.4,6.2-4.4,6.3l1.3,0.3C56.6,60.9,57.5,57.3,60.5,55.5z"/>
		<rect x="63.3" y="42.4" class="st3" width="0.9" height="9.3"/>
		<rect x="56.6" y="45.5" transform="matrix(0.855 -0.5187 0.5187 0.855 -17.3218 36.7466)" class="st3" width="0.9" height="7.8"/>
		<rect x="52" y="49.8" transform="matrix(0.5196 -0.8544 0.8544 0.5196 -20.5929 70.578)" class="st3" width="0.9" height="7.7"/>
		
			<rect x="49.8" y="56.2" transform="matrix(0.1175 -0.9931 0.9931 0.1175 -15.0482 102.738)" class="st3" width="0.9" height="7.3"/>
		<rect x="73.4" y="58.9" transform="matrix(0.9931 -0.1175 0.1175 0.9931 -6.446 9.4656)" class="st3" width="7.3" height="0.9"/>
		
			<rect x="52.4" y="55.5" transform="matrix(0.3485 -0.9373 0.9373 0.3485 -19.285 86.8825)" class="st3" width="0.9" height="3.6"/>
		
			<rect x="55.2" y="50.2" transform="matrix(0.7277 -0.6859 0.6859 0.7277 -20.755 52.4232)" class="st3" width="0.9" height="4.4"/>
		<rect x="60.5" y="47.6" transform="matrix(0.991 -0.1336 0.1336 0.991 -6.0972 8.5904)" class="st3" width="0.9" height="4.2"/>
		<rect x="66.6" y="49" transform="matrix(0.5188 -0.8549 0.8549 0.5188 -8.3773 84.1081)" class="st3" width="7.8" height="0.9"/>
		
			<rect x="71.3" y="53.3" transform="matrix(0.8545 -0.5195 0.5195 0.8545 -16.9926 46.8348)" class="st3" width="7.7" height="0.9"/>
		<rect x="72.9" y="57" transform="matrix(0.9374 -0.3482 0.3482 0.9374 -15.3345 29.613)" class="st3" width="3.6" height="0.9"/>
		<rect x="69.7" y="52" transform="matrix(0.6859 -0.7277 0.7277 0.6859 -15.6134 68.8322)" class="st3" width="4.4" height="0.9"/>
		<rect x="64.5" y="49.4" transform="matrix(0.134 -0.991 0.991 0.134 8.2553 109.2069)" class="st3" width="4.2" height="0.9"/>
	</g>
</g>
<g id="SvgjsG1043" transform="matrix(1,0,0,1,355,7)">
	<rect x="-4" class="st4" width="1" height="1"/>
</g>
<g id="SvgjsG1044" transform="matrix(3.0811891652495498,0,0,3.0811891652495498,132.39223665955012,11.005854804790474)">
	<path class="st3" d="M10.4,5.8v1.8h-7v4.4h6.5v1.8H3.4V20H1.5V5.8C1.5,5.8,10.4,5.8,10.4,5.8z M18.5,10.3c0.3,0,0.6,0,0.8,0.1
		l-0.1,1.9c-0.3-0.1-0.6-0.1-0.9-0.1c-1.8,0-2.7,1-2.7,3V20h-1.8v-9.5h1.8V12h0c0.2-0.5,0.6-0.9,1.2-1.2S17.9,10.3,18.5,10.3z
		 M26.3,10.3c1.2,0,2.1,0.3,2.9,0.8s1.1,1.3,1.1,2.3v5.1c0,0.5,0,1,0.1,1.5h-1.6c0-0.4-0.1-0.9-0.1-1.4h0c-0.4,0.6-0.9,1-1.4,1.3
		s-1.2,0.4-1.9,0.4c-1,0-1.8-0.3-2.4-0.8S22,18.3,22,17.4c0-1.1,0.5-1.9,1.4-2.4s2.2-0.8,3.8-0.8h1.3v-0.3c0-0.6-0.2-1.1-0.6-1.5
		c-0.4-0.4-1-0.6-1.6-0.6c-0.5,0-1,0.1-1.3,0.2c-0.4,0.2-0.8,0.4-1.4,0.9l-1.1-1.1C23.5,10.8,24.8,10.3,26.3,10.3L26.3,10.3z
		 M23.8,17.3c0,1,0.7,1.5,2,1.5c0.8,0,1.5-0.2,2-0.7s0.7-1.2,0.8-2.1v-0.5h-1c-1.2,0-2.1,0.1-2.7,0.4C24.1,16.2,23.8,16.6,23.8,17.3
		z M39.1,10.3c1.1,0,1.9,0.3,2.5,1s0.9,1.5,0.9,2.6V20h-1.8v-5.7c0-0.7-0.2-1.3-0.6-1.7S39.2,12,38.6,12c-0.8,0-1.5,0.3-2,0.8
		s-0.7,1.3-0.7,2.2v5h-1.8v-9.5h1.8V12h0c0.3-0.5,0.7-1,1.2-1.3S38.4,10.3,39.1,10.3z M51,10.3c1.5,0,2.7,0.5,3.6,1.5L53.3,13
		c-0.7-0.7-1.4-1.1-2.4-1.1c-0.9,0-1.6,0.3-2.1,0.9S48,14.4,48,15.3c0,0.9,0.3,1.7,0.9,2.3s1.3,0.9,2.2,0.9c0.9,0,1.7-0.4,2.3-1.1
		l1.3,1.3c-0.9,1-2.1,1.5-3.6,1.5c-1.5,0-2.6-0.5-3.5-1.4s-1.4-2.1-1.4-3.6c0-1.5,0.5-2.7,1.4-3.6C48.4,10.8,49.6,10.3,51,10.3z
		 M61.8,10.3c1.5,0,2.6,0.5,3.4,1.4c0.8,0.9,1.2,2.2,1.2,3.8v0.5h-7.6c0,0.8,0.3,1.4,0.9,1.9s1.4,0.8,2.3,0.8c1,0,1.9-0.5,2.6-1.4
		l1.4,1c-1,1.3-2.4,1.9-4.2,1.9c-1.5,0-2.6-0.5-3.5-1.4s-1.3-2.1-1.4-3.6c0-1.4,0.5-2.6,1.4-3.5C59.2,10.8,60.3,10.3,61.8,10.3
		L61.8,10.3z M64.5,14.5c0-0.9-0.3-1.6-0.8-2.1c-0.5-0.5-1.1-0.7-2-0.7c-0.6,0-1.1,0.1-1.5,0.4c-0.4,0.3-0.8,0.6-1,1.1
		s-0.4,0.9-0.4,1.3C58.8,14.5,64.5,14.5,64.5,14.5z"/>
</g>
</svg>
