<svg xmlns="http://www.w3.org/2000/svg" viewBox="0 0 100.1 101"><defs><style>.cls-1{fill:#fff;}.cls-2{fill:#eeedf4;}.cls-3{fill:blue;}.cls-4{fill:#f06;}</style></defs><g id="Ebene_2" data-name="Ebene 2"><g id="Ebene_1-2" data-name="Ebene 1"><g id="SvgjsG1042"><path class="cls-1" d="M16.12,30.87l.34-.57c1-1.47,1.58-2.27,2.38-2.16a6.37,6.37,0,0,1,2.27,1c1.36.9,3.06,1.93,4.2.56.45-.56.79-1.13,1.25-1.7,1-1.36,1.93-2.72,2.72-3,1-.34,3.29.68,4.43,1.14a3.33,3.33,0,0,1,.9.34l.23-1a1.93,1.93,0,0,1-.79-.34c-1.82-.79-4-1.47-5.11-1.13s-2,1.7-3.29,3.29a15.71,15.71,0,0,1-1.25,1.7c-.45.57-1.36.12-2.72-.79A7.25,7.25,0,0,0,19,27c-1.47-.11-2.27,1.13-3.29,2.61l-.45.68-1.36,2,.9.57A19.86,19.86,0,0,1,16.12,30.87Z"/><path class="cls-1" d="M25.76,22l.34-.34c.8-1,1.36-1.59,1.93-1.59a4,4,0,0,1,1.7.68c1.14.57,2.27,1.25,3.18.23.34-.46.68-.8,1-1.25a6.63,6.63,0,0,1,2.27-2.16c.8-.23,2.61.34,3.52.68a5.24,5.24,0,0,0,.68.23l.11-.8a1.89,1.89,0,0,1-.56-.22,8.74,8.74,0,0,0-4-.68c-.91.22-1.59,1.13-2.61,2.38-.35.34-.69.79-1,1.13s-1.13.12-2.15-.45a5.07,5.07,0,0,0-2.05-.79c-1,0-1.81.79-2.61,1.93l-.34.34a16.53,16.53,0,0,0-1.13,1.36l.57.45C24.63,23.49,25.42,22.58,25.76,22Z"/><path class="cls-1" d="M37,28.37c-1.48-.34-2.61.8-4.09,2.27l-.45.46c-.68.68-1.82,1.92-1.82,1.92l.8.69s1.24-1.25,1.81-1.93l.46-.46c1.36-1.47,2.15-2.15,3.06-1.93A6,6,0,0,1,39,30.87C40.4,32,42,33.37,43.47,32c.56-.56,1.13-1,1.7-1.59,1.36-1.36,2.61-2.49,3.52-2.72,1.13-.11,3.63,1.25,4.76,1.93.46.23.68.45.91.45l.45-.9c-.11-.12-.45-.23-.79-.46-1.93-1-4.09-2.15-5.45-2S46.08,28,44.49,29.62L42.9,31.21c-.68.57-1.59,0-3.07-1.25A11.89,11.89,0,0,0,37,28.37Z"/><path class="cls-2" d="M50.05,0C22.47,0,0,22.7,0,50.5S22.47,101,50.05,101,100.1,78.31,100.1,50.5,77.62,0,50.05,0Zm0,96.8C24.74,96.8,4.2,76,4.2,50.5S24.74,4.2,50.05,4.2,95.9,25,95.9,50.5,75.36,96.8,50.05,96.8Z"/><path class="cls-3" d="M64.57,62.87c-3.17-.57-6.24.91-9.3,2.27-2.39,1-4.65,2-6.58,1.93a38.34,38.34,0,0,1-6.13-1.25c-4.09-1-8.4-2-11.24-1.25A43.59,43.59,0,0,0,25,67.07c-5.22,2.5-9.65,4.65-15.21.11L8.51,68.77C15.09,74,20.65,71.38,26,68.89a42.91,42.91,0,0,1,5.9-2.39c2.38-.68,6.47.34,10.21,1.25A40.85,40.85,0,0,0,48.46,69c2.38.23,4.88-.91,7.6-2s5.56-2.5,8.06-2c4.77.8,9,2.16,23.38,8.4l.79-1.93C73.88,65.14,69.45,63.78,64.57,62.87Z"/><path class="cls-3" d="M60,75.36c-3.51-.12-8.39,1.7-13.05,3.74-1.81.79-4-.79-6.12-2.5a17.31,17.31,0,0,0-5.11-3.06c-2.84-.79-5.34.34-8.63,2-.34.23-.79.34-1.13.57-1.59.68-4.43,2.16-4.43,2.16l.91,1.93s2.84-1.37,4.31-2a8.63,8.63,0,0,0,1.14-.57C31,76.15,33,75.13,35.07,75.7a12.88,12.88,0,0,1,4.31,2.72c1.93,1.47,4.09,3.18,6.36,3.18a5.31,5.31,0,0,0,1.81-.34c4.31-1.82,9.08-3.64,12.14-3.52s8.18,2.61,10.1,3.52a1.81,1.81,0,0,1,.69.34l.9-1.93a3.06,3.06,0,0,0-.68-.34C68.66,78.08,63.33,75.58,60,75.36Z"/><path class="cls-4" d="M43,56.74a7.62,7.62,0,0,1,8.4.46,7,7,0,0,1,3.18,5.1h1.59A8.55,8.55,0,0,0,52.32,56a9.12,9.12,0,0,0-10.1-.45,12.11,12.11,0,0,0-5,7.14L38.7,63A9.8,9.8,0,0,1,43,56.74Z"/><rect class="cls-4" x="46.19" y="41.88" width="1.02" height="10.55"/><rect class="cls-4" x="38.62" y="45.39" width="1.02" height="8.85" transform="translate(-20.16 27.52) rotate(-31.24)"/><rect class="cls-4" x="33.42" y="50.26" width="1.02" height="8.74" transform="translate(-30.38 55.24) rotate(-58.69)"/><rect class="cls-4" x="30.92" y="57.56" width="1.02" height="8.28" transform="translate(-33.54 85.66) rotate(-83.25)"/><rect class="cls-4" x="57.65" y="60.6" width="8.28" height="1.02" transform="translate(-6.75 7.68) rotate(-6.75)"/><rect class="cls-4" x="33.81" y="56.76" width="1.02" height="4.09" transform="translate(-32.76 70.48) rotate(-69.6)"/><rect class="cls-4" x="37.03" y="50.71" width="1.02" height="4.99" transform="translate(-26.27 40.24) rotate(-43.31)"/><rect class="cls-4" x="43" y="47.78" width="1.02" height="4.77" transform="translate(-6.31 6.26) rotate(-7.68)"/><rect class="cls-4" x="49.9" y="49.41" width="8.85" height="1.02" transform="translate(-16.54 70.47) rotate(-58.75)"/><rect class="cls-4" x="55.26" y="54.22" width="8.74" height="1.02" transform="translate(-19.75 38.94) rotate(-31.3)"/><rect class="cls-4" x="57.08" y="58.45" width="4.09" height="1.02" transform="translate(-16.83 24.28) rotate(-20.38)"/><rect class="cls-4" x="53.42" y="52.81" width="4.99" height="1.02" transform="translate(-21.24 57.44) rotate(-46.69)"/><rect class="cls-4" x="47.53" y="49.86" width="4.77" height="1.02" transform="matrix(0.13, -0.99, 0.99, 0.13, -6.69, 93.09)"/></g></g></g></svg>