<svg xmlns="http://www.w3.org/2000/svg" viewBox="0 0 214.99 66.55"><defs><style>.cls-1{fill:#ff0076;fill-opacity:0;}.cls-2{fill:#f06;}</style></defs><g id="Ebene_2" data-name="Ebene 2"><g id="Ebene_1-2" data-name="Ebene 1"><g id="SvgjsG1043"><rect class="cls-1" x="213.99" width="1" height="1"/></g><g id="SvgjsG1044"><path class="cls-2" d="M27.42,21.88v5.54H5.85V41h20v5.55h-20v19.1H0V21.88Zm25,13.86a6,6,0,0,1,2.47.31l-.31,5.85a8.79,8.79,0,0,0-2.78-.3q-8.31,0-8.32,9.24V65.63H37.9V36.36h5.54V41h0a7.23,7.23,0,0,1,3.7-3.7A11.42,11.42,0,0,1,52.38,35.74Zm24,0a16.11,16.11,0,0,1,8.94,2.47c2.46,1.54,3.39,4,3.39,7.08V61a23.16,23.16,0,0,0,.31,4.62H84.12c0-1.23-.31-2.77-.31-4.31h0a13.08,13.08,0,0,1-4.32,4,11.64,11.64,0,0,1-5.85,1.23,11.22,11.22,0,0,1-7.39-2.46,8.2,8.2,0,0,1-3.09-6.47,8,8,0,0,1,4.32-7.4c2.77-1.54,6.78-2.46,11.71-2.46h4v-.93a6.26,6.26,0,0,0-1.85-4.62,7,7,0,0,0-4.93-1.85,13.54,13.54,0,0,0-4,.62,19.6,19.6,0,0,0-4.32,2.77L64.7,40.36a16.05,16.05,0,0,1,11.71-4.62Zm-7.7,21.57c0,3.08,2.16,4.62,6.16,4.62A8.42,8.42,0,0,0,81,59.78c1.54-1.55,2.15-3.7,2.46-6.48V51.76H80.42c-3.7,0-6.47.31-8.32,1.24C69.63,53.92,68.71,55.15,68.71,57.31Zm47.14-21.57c3.39,0,5.86.93,7.71,3.08a11.58,11.58,0,0,1,2.77,8v18.8h-5.55V48.07a7.21,7.21,0,0,0-1.85-5.24A6.27,6.27,0,0,0,114.31,41a8.57,8.57,0,0,0-6.16,2.47c-1.54,1.54-2.16,4-2.16,6.77V65.63h-5.54V36.36H106V41h0a11.67,11.67,0,0,1,3.7-4A13,13,0,0,1,115.85,35.74Zm36.67,0a14.19,14.19,0,0,1,11.09,4.62l-4,3.7c-2.16-2.16-4.32-3.39-7.4-3.39a8,8,0,0,0-6.47,2.78,12.73,12.73,0,0,0-2.46,7.7,9.73,9.73,0,0,0,2.77,7.08A9.05,9.05,0,0,0,152.83,61a9.18,9.18,0,0,0,7.08-3.39l4,4a14.16,14.16,0,0,1-11.09,4.63A14.38,14.38,0,0,1,142,61.93a15.09,15.09,0,0,1-4.31-11.09A15.09,15.09,0,0,1,142,39.75,14.67,14.67,0,0,1,152.52,35.74Zm33.28,0c4.62,0,8,1.54,10.47,4.32s3.7,6.77,3.7,11.7V53.3H176.55a7.16,7.16,0,0,0,2.78,5.86,11,11,0,0,0,7.08,2.46,10.1,10.1,0,0,0,8-4.31l4.32,3.08c-3.08,4-7.4,5.86-12.94,5.86A14.35,14.35,0,0,1,175,61.93c-2.77-2.77-4-6.47-4.31-11.09A14.87,14.87,0,0,1,175,40.06a14.35,14.35,0,0,1,10.79-4.32Zm8.31,12.94a8.83,8.83,0,0,0-2.46-6.47c-1.54-1.54-3.39-2.15-6.16-2.15a7.38,7.38,0,0,0-4.62,1.23,8.17,8.17,0,0,0-3.09,3.39,11.87,11.87,0,0,0-1.23,4Z"/></g></g></g></svg>